<mxfile host="app.diagrams.net" modified="2023-06-13T14:14:32.850Z" agent="Mozilla/5.0 (Windows NT 10.0; Win64; x64) AppleWebKit/537.36 (KHTML, like Gecko) Chrome/112.0.0.0 Safari/537.36 OPR/98.0.0.0" version="21.3.7" etag="FDW3HmyLi8tW7TBxynTP" type="github">
  <diagram name="Pagina-1" id="7S9o3XL6ozwhOW6UqKEp">
    <mxGraphModel>
      <root>
        <mxCell id="0" />
        <mxCell id="1" parent="0" />
      </root>
    </mxGraphModel>
  </diagram>
</mxfile>
